+15_ID_stride4.mot
nRows=7
nColumns=38

name +15_ID_stride4.mot
datacolumns 38
datarows 7
range 1.5850000000 1.6150000000
endheader
time	pelvis_tilt_moment	pelvis_list_moment	pelvis_rotation_moment	pelvis_tx_force	pelvis_ty_force	pelvis_tz_force	hip_flexion_r_moment	hip_adduction_r_moment	hip_rotation_r_moment	knee_angle_r_moment	ankle_angle_r_moment	subtalar_angle_r_moment	mtp_angle_r_moment	hip_flexion_l_moment	hip_adduction_l_moment	hip_rotation_l_moment	knee_angle_l_moment	ankle_angle_l_moment	subtalar_angle_l_moment	mtp_angle_l_moment	lumbar_extension_moment	lumbar_bending_moment	lumbar_rotation_moment	arm_flex_r_moment	arm_add_r_moment	arm_rot_r_moment	elbow_flex_r_moment	pro_sup_r_moment	wrist_flex_r_moment	wrist_dev_r_moment	arm_flex_l_moment	arm_add_l_moment	arm_rot_l_moment	elbow_flex_l_moment	pro_sup_l_moment	wrist_flex_l_moment	wrist_dev_l_moment
        1.5850000000	       30.9899497329	       -2.3071848836	       29.2631495457	       -6.3957341182	      -11.2864805090	      -62.9520286090	      -20.6107875943	      -14.0310325279	        1.9748916649	       -2.7023822309	        2.7054011505	       -0.7622004933	        0.1387022540	        8.2809509685	      -38.6642983915	      -11.7656333647	       11.1203037599	     -169.1907544270	       19.6056818714	       -0.0415366072	       29.9189818268	       -0.8898082177	       37.5455003536	        7.7175968956	        4.9524237155	        3.8460124567	        5.5967354803	        0.0117743633	        0.5273276823	       -0.3841877578	        0.0541558703	       -1.6042277997	       -3.0676786133	        5.0394455972	       -0.2065359311	       -0.2561120677	       -0.5185742423	
        1.5900000000	       28.7439189179	       -8.6626757539	       19.1737326172	       -4.7894159141	        0.2110884896	      -76.9714146420	      -24.5555382494	      -14.1701437591	        1.9585720363	       -3.6140808474	        2.7500777393	       -0.8250469987	        0.1388910370	       13.3847090314	      -39.6927068060	       -4.0868555720	        7.6979616065	     -157.5154140125	       19.9538028809	       -0.0429552300	       22.5795077171	       -6.3613580223	       35.9711981814	        7.8146145610	        4.4911452816	        3.5069559053	        5.3418011235	        0.0110586330	        0.4898611683	       -0.3671021955	        0.2361505222	       -1.4074184628	       -2.8870951755	        4.6341719810	       -0.1965652758	       -0.2492461332	       -0.4816240426	
        1.5950000000	       20.9195159886	      -18.2250056742	       10.5973433110	       -4.6698492597	       12.2098250918	      -83.1217472318	      -28.8931300583	      -12.8319695090	        1.6266151416	       -4.8691812617	        2.8029029856	       -0.8680262945	        0.1408742780	       15.6577101712	      -41.4168384033	        2.3191591305	        1.6347190839	     -145.5441991834	       19.6668152683	       -0.0434148106	       16.0554834068	      -10.9724301709	       33.8871019623	        7.7918666139	        3.9094396354	        3.0981537674	        5.0249790569	        0.0093176716	        0.4447332973	       -0.3465561273	        0.2933943037	       -1.0861996633	       -2.6122488057	        4.1758274131	       -0.1828635042	       -0.2320560414	       -0.4384083073	
        1.6000000000	       12.8347232673	      -23.6419564884	        7.3924280124	       -4.5441367653	       17.5398705376	      -84.1089910718	      -33.6535939540	       -8.6222843192	        0.9516363131	       -6.5986441551	        2.8636096395	       -0.8944846675	        0.1454156303	       17.6761029109	      -41.3625525878	        4.6212628237	       -2.6717891685	     -132.3924003736	       18.0475497902	       -0.0433679445	       10.8439796873	      -14.5239919828	       31.6964954149	        7.5521959988	        3.2419946754	        2.6641931648	        4.6166266028	        0.0086215137	        0.3961103040	       -0.3191533285	        0.2747164651	       -0.7050219083	       -2.2863841154	        3.6371461559	       -0.1658295481	       -0.2118738165	       -0.3873198357	
        1.6050000000	        7.4748925711	      -22.4871342010	       10.5658051482	       -0.4085307217	        9.3540108078	      -76.8950708632	      -38.8431073277	       -2.3033216093	        0.1953094509	       -8.9457455063	        2.9302561510	       -0.9102319528	        0.1518892367	       24.4080723646	      -33.9262117149	        2.5726651302	       -3.6985401668	     -117.5230434740	       16.1671334651	       -0.0414681587	        6.9976643213	      -17.1159758660	       29.6613857459	        7.0632958760	        2.5216058630	        2.2399223183	        4.0862079649	        0.0108966038	        0.3472685366	       -0.2810982127	       -0.0709519039	       -0.3090920923	       -1.9406245682	        2.9924529378	       -0.1458610064	       -0.1919003954	       -0.3267546924	
        1.6100000000	        5.2315260808	      -14.8314625297	       16.4949715085	        6.0886828434	      -13.0136630445	      -63.8052261507	      -44.4210279461	        5.1853796896	       -0.3128613871	      -11.9753883702	        2.9936830231	       -0.9237028027	        0.1591445092	       35.9776913710	      -22.7267523502	       -0.5900372221	       -1.4197753177	     -101.4485776145	       14.9826257628	       -0.0376208814	        4.5787421528	      -18.1477554066	       28.0762523642	        6.3581633081	        1.7935386833	        1.8672635991	        3.4226645601	        0.0164160894	        0.3016788689	       -0.2306977761	       -0.6663551508	        0.0416044780	       -1.6130861933	        2.2310653112	       -0.1236928425	       -0.1763117761	       -0.2560999319	
        1.6150000000	        3.3952336689	        3.4164630587	       23.4949195538	       13.8293375472	      -56.5845478577	      -42.7702559843	      -49.7929575059	       13.2217901860	       -0.3940320972	      -15.7106104284	        3.0610180442	       -0.9393345275	        0.1666417487	       52.2933646428	       -9.8874031798	       -1.8198205370	        5.1927449017	      -84.5531954616	       14.0992340217	       -0.0302956120	        3.0969455651	      -18.1344823561	       27.0318925108	        5.3943354845	        1.0910314167	        1.5696863941	        2.6023458127	        0.0271411209	        0.2611314010	       -0.1649116491	       -1.5903231172	        0.3064235606	       -1.3275825781	        1.3394627669	       -0.0996117378	       -0.1686046583	       -0.1742617146	
